PathFileType  4	(X/Y/Z) E:\AxonAIRepo\axonai_vps\Data\session_74dd741a74\MarkerData\OpenPose_default\PreAugmentation
DataRate	CameraRate	NumFrames	NumMarkers	Units	OrigDataRate	OrigDataStartFrame	OrigNumFrames
60.0	60.0	12	20	m	60.0	299	398
Frame#	Time	Neck			RShoulder			RElbow			RWrist			LShoulder			LElbow			LWrist			midHip			RHip			RKnee			RAnkle			LHip			LKnee			LAnkle			LBigToe			LSmallToe			LHeel			RBigToe			RSmallToe			RHeel			
		X1	Y1	Z1	X2	Y2	Z2	X3	Y3	Z3	X4	Y4	Z4	X5	Y5	Z5	X6	Y6	Z6	X7	Y7	Z7	X8	Y8	Z8	X9	Y9	Z9	X10	Y10	Z10	X11	Y11	Z11	X12	Y12	Z12	X13	Y13	Z13	X14	Y14	Z14	X15	Y15	Z15	X16	Y16	Z16	X17	Y17	Z17	X18	Y18	Z18	X19	Y19	Z19	X20	Y20	Z20	

299	4.9666667	-1.9242700	1.4158800	0.2514800	-1.7120600	1.4035300	0.4240700	-1.7602200	1.0955900	0.4995600	-1.6056300	0.8497600	0.4796000	-1.7464600	1.4075800	0.0514700	-1.8907400	1.0944000	-0.0403700	-1.9001000	0.8055200	-0.0586500	-1.8577400	0.8529500	0.2373600	-1.8661100	0.8391900	0.3617100	-1.9103300	0.3967500	0.3313800	-2.1917400	-0.0224400	0.2779400	-1.7967600	0.8653400	0.1182100	-1.5985300	0.4554100	0.1601500	-1.4680800	0.0643100	0.1557400	-1.3797800	-0.0062100	0.2067600	-1.3943800	-0.0045400	0.1357600	-1.4886900	0.0132200	0.1618300	-2.1376100	-0.1002800	0.2772200	-2.0808600	-0.0769600	0.3316800	-2.1111400	-0.0316600	0.2326100
300	4.9833333	-1.9079500	1.4147800	0.2484300	-1.6885000	1.4063200	0.4217000	-1.7288600	1.0918300	0.5008100	-1.5798400	0.8382000	0.4804100	-1.7036200	1.4057000	0.0492600	-1.8571500	1.0898500	-0.0416800	-1.8623600	0.8067100	-0.0620300	-1.8306100	0.8508200	0.2400300	-1.8315900	0.8409400	0.3594200	-1.8850100	0.3958800	0.3239700	-2.1412600	-0.0324300	0.2738400	-1.7520800	0.8613100	0.1226200	-1.5812400	0.4493400	0.1526600	-1.4660600	0.0445700	0.1554100	-1.3871200	-0.0240400	0.2060500	-1.4005900	-0.0221900	0.1366400	-1.5068300	0.0051500	0.1616900	-2.1474500	-0.1114000	0.2924400	-2.1256100	-0.0999200	0.3371900	-2.1009800	-0.0518200	0.2317900
301	5.0000000	-1.8752100	1.4154600	0.2453600	-1.6525200	1.4090100	0.4181800	-1.6934700	1.0940500	0.5024400	-1.5566300	0.8314800	0.4816300	-1.6702200	1.4046100	0.0470700	-1.8078400	1.0875100	-0.0434100	-1.8127400	0.8091600	-0.0671900	-1.8018000	0.8499500	0.2433300	-1.7973400	0.8421600	0.3560200	-1.8431500	0.3959900	0.3141400	-2.0200700	-0.0346900	0.2641400	-1.7252400	0.8593900	0.1265500	-1.5864100	0.4433100	0.1456100	-1.4592700	0.0313800	0.1553900	-1.3991800	-0.0430200	0.2092000	-1.4067700	-0.0397900	0.1379200	-1.4965900	0.0033600	0.1596000	-2.0633900	-0.1147300	0.2905600	-2.1411700	-0.1164000	0.3387100	-2.0557800	-0.0565300	0.2280800
302	5.0166667	-1.8386800	1.4178900	0.2447600	-1.6257000	1.4116800	0.4155700	-1.6570600	1.0981400	0.5037700	-1.5326700	0.8289200	0.4826600	-1.6552500	1.4061700	0.0453900	-1.7503200	1.0866700	-0.0472700	-1.7470900	0.8122800	-0.0728900	-1.7680300	0.8497300	0.2465100	-1.7704800	0.8426300	0.3548900	-1.8099600	0.3932400	0.3103200	-1.9100000	-0.0297000	0.2553700	-1.7032100	0.8577500	0.1292800	-1.5922400	0.4390800	0.1417900	-1.4492800	0.0237400	0.1555200	-1.4081700	-0.0591900	0.2145200	-1.4095400	-0.0551200	0.1382100	-1.4688100	0.0009600	0.1568100	-1.9353600	-0.1477100	0.2925900	-2.0733200	-0.1706600	0.3557800	-1.9815500	-0.0678200	0.2306000
303	5.0333333	-1.8063000	1.4229800	0.2460400	-1.6163400	1.4150200	0.4146700	-1.6208000	1.1005300	0.5047100	-1.5076300	0.8288000	0.4834300	-1.6533800	1.4106500	0.0448500	-1.6906000	1.0884500	-0.0520600	-1.6796700	0.8159400	-0.0776500	-1.7315500	0.8524600	0.2472700	-1.7449400	0.8464100	0.3571500	-1.8066000	0.3893800	0.3158000	-1.8994800	-0.0317000	0.2589600	-1.6732700	0.8591800	0.1301800	-1.5801600	0.4339700	0.1425300	-1.4431500	0.0208300	0.1553700	-1.4253200	-0.0662700	0.2199700	-1.4104200	-0.0638100	0.1389300	-1.4578200	0.0043600	0.1535400	-1.9589000	-0.1406400	0.2955400	-2.0754900	-0.1439900	0.3512500	-1.9726900	-0.0574700	0.2289200
304	5.0500000	-1.7708700	1.4277400	0.2465200	-1.6158300	1.4185800	0.4145700	-1.5844400	1.1003100	0.5059500	-1.4823100	0.8267300	0.4843200	-1.6513800	1.4172900	0.0443100	-1.6389000	1.0921000	-0.0555400	-1.6355900	0.8163500	-0.0811300	-1.6942000	0.8547500	0.2445900	-1.7119000	0.8504400	0.3597600	-1.8209100	0.3860900	0.3250800	-1.9812600	-0.0325400	0.2707300	-1.6336100	0.8609800	0.1287500	-1.5539900	0.4358700	0.1443600	-1.4429600	0.0175600	0.1550900	-1.4380400	-0.0719200	0.2245500	-1.4038000	-0.0664100	0.1413700	-1.4662600	0.0004100	0.1514500	-2.0757900	-0.1160100	0.3068900	-2.1218700	-0.1051400	0.3462200	-2.0323100	-0.0435400	0.2255600
305	5.0666667	-1.7230900	1.4289800	0.2452300	-1.6173100	1.4212700	0.4145700	-1.5551600	1.1003500	0.5074000	-1.4582600	0.8260000	0.4853300	-1.6399300	1.4234800	0.0422200	-1.6049100	1.0971000	-0.0580600	-1.6248100	0.8144600	-0.0833800	-1.6493600	0.8580300	0.2393100	-1.6655700	0.8541300	0.3592900	-1.8268900	0.3909000	0.3311600	-2.0583800	-0.0244800	0.2812700	-1.5918600	0.8641400	0.1241900	-1.5258000	0.4438200	0.1438100	-1.4470200	0.0141000	0.1548000	-1.4402600	-0.0718800	0.2260300	-1.3946200	-0.0640100	0.1433300	-1.4815000	-0.0061000	0.1500300	-2.1275000	-0.1030900	0.3198100	-2.1460100	-0.0929400	0.3482700	-2.0795100	-0.0366900	0.2259400
306	5.0833333	-1.6619400	1.4260500	0.2422400	-1.6196100	1.4239200	0.4148200	-1.5413500	1.1034900	0.5080600	-1.4382400	0.8272400	0.4861800	-1.6226700	1.4271300	0.0389800	-1.5874000	1.1016800	-0.0605800	-1.6290900	0.8122600	-0.0838900	-1.5940300	0.8611000	0.2334000	-1.6072400	0.8579200	0.3558300	-1.8106800	0.3979700	0.3337700	-2.0817300	0.0231000	0.2814800	-1.5543700	0.8647600	0.1173200	-1.5073800	0.4549800	0.1407000	-1.4478400	0.0114900	0.1553100	-1.4337800	-0.0730100	0.2263300	-1.3915700	-0.0655500	0.1437400	-1.4808400	-0.0123600	0.1506400	-2.0959900	-0.0888300	0.3249500	-2.1407400	-0.0785800	0.3501200	-2.0426600	-0.0154000	0.2302600
307	5.1000000	-1.5959100	1.4224000	0.2364900	-1.6180800	1.4265800	0.4154900	-1.5371500	1.1058800	0.5071500	-1.4269100	0.8277100	0.4866800	-1.6110300	1.4274100	0.0365100	-1.5760100	1.1034100	-0.0630200	-1.6138900	0.8134300	-0.0814900	-1.5411700	0.8611300	0.2293500	-1.5480100	0.8585200	0.3516300	-1.7764800	0.4086300	0.3355600	-2.0474700	0.0829500	0.2829900	-1.5267600	0.8615700	0.1112000	-1.4998700	0.4567800	0.1380000	-1.4406700	0.0118200	0.1567300	-1.4290100	-0.0726700	0.2263600	-1.4008200	-0.0694900	0.1423400	-1.4629000	-0.0106800	0.1531400	-2.0348200	-0.0767300	0.3283000	-2.1000100	-0.0751800	0.3597900	-1.9419900	0.0394400	0.2338800
308	5.1166667	-1.5370600	1.4213900	0.2286800	-1.6029400	1.4280000	0.4156300	-1.5292100	1.1071800	0.5051700	-1.4253300	0.8273400	0.4868600	-1.6078100	1.4274700	0.0356400	-1.5604000	1.1021000	-0.0657300	-1.5550100	0.8195700	-0.0749700	-1.5063200	0.8591100	0.2285100	-1.5029100	0.8574000	0.3492500	-1.7227900	0.4185700	0.3392500	-1.9737500	0.1215700	0.2895000	-1.5100300	0.8577600	0.1087800	-1.4984900	0.4504200	0.1369200	-1.4275600	0.0175700	0.1572500	-1.4262100	-0.0710200	0.2264600	-1.4158600	-0.0721700	0.1400100	-1.4337900	-0.0035800	0.1568900	-1.9880100	-0.0484500	0.3285100	-2.0482200	-0.0464500	0.3642100	-1.8462800	0.1030500	0.2376600
309	5.1333333	-1.4926300	1.4238100	0.2229100	-1.5731100	1.4286500	0.4136200	-1.5126700	1.1119000	0.5038400	-1.4280400	0.8278600	0.4869300	-1.6039100	1.4285600	0.0362100	-1.5422800	1.1016800	-0.0687700	-1.4684400	0.8292700	-0.0655000	-1.4924000	0.8568300	0.2294600	-1.4838000	0.8544700	0.3512400	-1.6584100	0.4276400	0.3448800	-1.9000100	0.1522200	0.2949900	-1.4936700	0.8555800	0.1095600	-1.4966000	0.4407900	0.1369400	-1.4078200	0.0263600	0.1556700	-1.4262600	-0.0685900	0.2265400	-1.4264500	-0.0718500	0.1383000	-1.4016000	0.0045700	0.1606500	-1.9337200	-0.0305300	0.3295200	-1.9608700	-0.0195000	0.3647000	-1.7902000	0.1543600	0.2420700
310	5.1500000	-1.4663000	1.4269900	0.2217200	-1.5436800	1.4297000	0.4098700	-1.4915600	1.1160700	0.5033600	-1.4257900	0.8270900	0.4872100	-1.5915200	1.4302600	0.0383100	-1.5315300	1.1049500	-0.0708600	-1.3989200	0.8374700	-0.0568800	-1.4894700	0.8528600	0.2295700	-1.4900300	0.8479000	0.3564700	-1.5956300	0.4344000	0.3498500	-1.8391000	0.1632200	0.3005400	-1.4684400	0.8515400	0.1101800	-1.4962700	0.4360000	0.1368200	-1.3841200	0.0355200	0.1531400	-1.4268900	-0.0688200	0.2267900	-1.4260900	-0.0700400	0.1383200	-1.3806800	0.0130600	0.1624800	-1.8875700	-0.0063600	0.3275700	-1.8771900	0.0152600	0.3608200	-1.7618600	0.1853400	0.2494800
